<?xml version="1.0" encoding="utf-8"?><svg version="1.1" xmlns="http://www.w3.org/2000/svg" viewBox="0 0 734.8 734.8"><g><rect width="100%" height="100%" fill="#fafaf5"/><path fill="#004F4E" d="M0,0.4v279.4l33.6,0l4.5,31.5c10.3-18.3,32.7-34.9,65.2-34.9c32.9,0,51.5,16,62.3,27.3 c38.5-25.9,78.7-18.5,100.6-3.2c22.5,15.7,30.8,46,25.1,80.2c-1.3,7.8-9.9,34.9-11.3,43.1c-0.3,1.9,1.6,3.3,3.3,2.9 c1-0.2,23.7-17.9,37.8-33.9V181.1h56.8v171.3h4.4l70.8-72.6h66.5L427,372.4l94.6,104.7l-66.9,0l-71.9-83.3h-5v83.3h-56.8v-22 c-8.3,7-24.3,19.4-38.7,24.7c-17.5,6.3-57.3,0.5-50.9-43.7c1.7-11.7,9.6-49.2,11.2-56.5c11-52.5-36.1-45.8-52.9-33.5 c7.4,21.8,9.9,49.5,6.2,76.1c-3.4,24.5-12,43.5-25.5,56.6c-11.4,11.1-26,17.1-41,17.1c-2.5,0-5.1-0.2-7.6-0.5 c-15.6-2.1-28.2-11.2-37.7-24.3c-9.9-13.5-12.3-31.5-9.9-49.3c3.6-26.7,18.3-54.3,45.6-82.1c-5.9-9.1-47-25.5-72.5,15.3 c-9.5,15.2-8.7,35.1-8.6,54c0,0,0.2,42.7,0.2,68.1H0v258.1h734.8V477.1h-66.9L596,393.8h-5.1v83.3h-56.8v-296h56.8v171.3h4.4 l70.8-72.6h66.5l-92.4,92.6l94.6,104.7V0.4H0z"/></g></svg>
